<svg xmlns="http://www.w3.org/2000/svg" viewBox="0 0 560 96" width="100%" role="img" aria-label="Share of estimated study time across all six skills, largest first"><style>
.p-title{fill:#e7e7e7;font-size:12px;font-weight:700}
.p-sub{fill:#9b9b9b;font-size:10px}
.p-unit{fill:#9b9b9b;font-size:10px}
.p-axis{fill:#9b9b9b;font-size:9.5px}
.p-grid{stroke:#2c2e34;stroke-width:1;stroke-dasharray:2,3}
.p-base{stroke:#2c2e34;stroke-width:1}
.p-tick{stroke:#2c2e34;stroke-width:1}
.p-xlab{fill:#9b9b9b;font-size:9px;text-anchor:middle}
.p-line{fill:none;stroke:#7ea9ec;stroke-width:2;stroke-linejoin:round;stroke-linecap:round}
.p-area{fill:#7ea9ec;opacity:.12}
.p-end{fill:#7ea9ec;stroke:#15161a;stroke-width:2}
.p-endlab{fill:#c3c4c8;font-size:10px;text-anchor:end;font-weight:700}
.b-bar{fill:#7ea9ec}
.b-bar:hover{fill:#a9c6f5;opacity:.9}
.d-lab{fill:#9b9b9b;font-size:10px;text-anchor:middle}
.d-val{fill:#c3c4c8;font-size:10px;text-anchor:middle;font-weight:700}
/* heatmap */
.hm-mon{fill:#9b9b9b;font-size:10px}
.hm-dow{fill:#9b9b9b;font-size:9px;text-anchor:end}
rect:hover{opacity:.82}
/* horizontal bars */
.h-cat{fill:#e7e7e7;font-size:12px;text-anchor:end;dominant-baseline:middle}
.h-track{fill:#2c2e34;opacity:.5}
.h-fill{fill:#7ea9ec}
.h-val{fill:#c3c4c8;font-size:11px;font-weight:700;dominant-baseline:middle}
.ts-lab{fill:#e7e7e7;font-size:11px;font-weight:700}
.ts-val{fill:#9b9b9b;font-size:11px}
</style><rect x="0" y="0" width="100%" height="100%" fill="#15161a"/><rect x="0.0" y="0" width="295.4" height="24" rx="3" fill="#7ea9ec"><title>Listening: 58.3 h (53%)</title></rect><rect x="297.4" y="0" width="97.9" height="24" rx="3" fill="#d9a768"><title>Grammar: 19.6 h (18%)</title></rect><rect x="397.3" y="0" width="52.0" height="24" rx="3" fill="#7bc491"><title>Speaking: 10.6 h (10%)</title></rect><rect x="451.2" y="0" width="45.4" height="24" rx="3" fill="#6cc0b0"><title>Vocab: 9.3 h (9%)</title></rect><rect x="498.6" y="0" width="29.9" height="24" rx="3" fill="#d38178"><title>Reading: 6.2 h (6%)</title></rect><rect x="530.5" y="0" width="23.5" height="24" rx="3" fill="#ab98dd"><title>Writing: 5.0 h (5%)</title></rect><rect x="0.0" y="40" width="10" height="10" rx="2" fill="#7ea9ec"/><text class="ts-lab" x="15.0" y="49">Listening</text><text class="ts-val" x="15.0" y="62">53% · 58.3 h</text><rect x="186.7" y="40" width="10" height="10" rx="2" fill="#d9a768"/><text class="ts-lab" x="201.7" y="49">Grammar</text><text class="ts-val" x="201.7" y="62">18% · 19.6 h</text><rect x="373.3" y="40" width="10" height="10" rx="2" fill="#7bc491"/><text class="ts-lab" x="388.3" y="49">Speaking</text><text class="ts-val" x="388.3" y="62">10% · 10.6 h</text><rect x="0.0" y="66" width="10" height="10" rx="2" fill="#6cc0b0"/><text class="ts-lab" x="15.0" y="75">Vocab</text><text class="ts-val" x="15.0" y="88">9% · 9.3 h</text><rect x="186.7" y="66" width="10" height="10" rx="2" fill="#d38178"/><text class="ts-lab" x="201.7" y="75">Reading</text><text class="ts-val" x="201.7" y="88">6% · 6.2 h</text><rect x="373.3" y="66" width="10" height="10" rx="2" fill="#ab98dd"/><text class="ts-lab" x="388.3" y="75">Writing</text><text class="ts-val" x="388.3" y="88">5% · 5.0 h</text></svg>